<?xml version="1.0" encoding="utf-8"?>
<!-- Generator: Adobe Illustrator 27.7.0, SVG Export Plug-In . SVG Version: 6.00 Build 0)  -->
<svg version="1.1" id="Layer_1" xmlns="http://www.w3.org/2000/svg" xmlns:xlink="http://www.w3.org/1999/xlink" x="0px" y="0px"
	 viewBox="0 0 141.88 140.11" style="enable-background:new 0 0 141.88 140.11;" xml:space="preserve">
<style type="text/css">
	.st0{fill:#7FC043;}
	.st1{fill:#07283F;}
	.st2{fill:#FFFFFF;}
	.st3{fill:#50499D;}
	.st4{fill:none;stroke:#7FC043;stroke-miterlimit:10;}
	.st5{fill:none;stroke:#FFFFFF;stroke-miterlimit:10;}
	.st6{fill:none;stroke:#50499D;stroke-miterlimit:10;}
</style>
<g>
	<path class="st3" d="M130.36,70.15c0-32.84-26.62-59.46-59.46-59.46c-31.81,0-57.79,24.98-59.38,56.39v62.34h64.13
		C106.27,127,130.36,101.39,130.36,70.15"/>
	<path class="st0" d="M32.14,83.85c0.97,0.01,1.76,0.8,1.73,1.73c-0.03,0.96-0.83,1.71-1.78,1.71c-0.95-0.01-1.73-0.81-1.72-1.76
		C30.38,84.57,31.15,83.84,32.14,83.85"/>
	<path class="st2" d="M30.95,77.43H25.2v16.14h5.75c2.13,0,3.88-0.47,5.23-1.31l-0.05-0.09l-0.47,0.18
		c-0.13,0.05-0.28,0.04-0.4-0.03c-0.12-0.07-0.2-0.2-0.22-0.34l-0.2-1.74c-0.96,0.65-2.25,1.01-3.89,1.01h-3.23v-11.5h3.23
		c4.12,0,6.05,2.27,6.05,5.75c0,1.3-0.27,2.43-0.82,3.34l1.84,1.51c0.04,0.03,0.07,0.07,0.1,0.11c0.94-1.32,1.42-3.01,1.42-4.96
		C39.54,80.67,36.58,77.43,30.95,77.43"/>
	<path class="st2" d="M43.19,79.46c0.94,0,1.63-0.72,1.63-1.65c0-0.94-0.69-1.63-1.63-1.63c-0.94,0-1.63,0.69-1.63,1.63
		C41.56,78.74,42.25,79.46,43.19,79.46"/>
	<rect x="42.03" y="81.38" class="st2" width="2.34" height="12.19"/>
	<path class="st2" d="M52.89,93.79c2.05,0,3.75-0.94,4.59-2.52v1.41c0,3.18-1.65,4.37-4.15,4.37c-1.78,0-3.21-0.62-3.77-2.02h-2.39
		c0.84,2.81,3.18,4.07,6.17,4.07c3.6,0,6.47-1.83,6.47-6.52v-5.01c0-3.92-2.67-6.52-6.51-6.52c-3.85,0-6.56,2.72-6.56,6.42
		C46.72,91.62,49.73,93.79,52.89,93.79 M53.28,83.23c2.52,0,4.19,1.78,4.19,4.25c0,2.47-1.68,4.12-4.19,4.12
		c-2.52,0-4.2-1.65-4.2-4.12C49.09,85.01,50.76,83.23,53.28,83.23"/>
	<rect x="62.66" y="81.38" class="st2" width="2.34" height="12.19"/>
	<path class="st2" d="M63.82,76.17c-0.94,0-1.63,0.69-1.63,1.63c0,0.94,0.69,1.65,1.63,1.65c0.94,0,1.63-0.72,1.63-1.65
		C65.45,76.86,64.76,76.17,63.82,76.17"/>
	<path class="st2" d="M77.61,88.96v-0.27h-2.32v0.27c0,1.95-1.04,2.76-2.57,2.76s-2.54-0.84-2.54-2.76v-5.43h6.71v-2.15h-6.71v-4.32
		h-2.34v11.89c0,3.31,1.97,4.94,4.89,4.94S77.61,92.26,77.61,88.96"/>
	<path class="st2" d="M85.66,81.06c-3.88,0-6.59,2.69-6.59,6.51c0,4.02,3.01,6.32,6.19,6.32c2.12,0,3.92-1.01,4.74-2.99v2.66h2.15
		v-6C92.15,83.68,89.48,81.06,85.66,81.06 M85.63,91.72c-2.52,0-4.2-1.78-4.2-4.24c0-2.47,1.68-4.24,4.2-4.24
		c2.52,0,4.19,1.78,4.19,4.24C89.83,89.94,88.15,91.72,85.63,91.72"/>
	<rect x="95.01" y="76.05" class="st2" width="2.34" height="17.52"/>
	<path class="st2" d="M31.9,107.13c-1.95-0.34-3.7-0.62-3.7-2.32c0-1.48,1.16-2.57,3.23-2.57c2,0,3.11,1.06,3.18,2.49H37
		c-0.1-2.89-2.32-4.81-5.63-4.81c-3.38,0-5.6,2.02-5.6,4.96c0,3.63,2.89,4.12,5.4,4.57c1.95,0.35,3.68,0.62,3.68,2.32
		c0,1.58-1.26,2.62-3.5,2.62c-2.2,0-3.4-1.04-3.45-2.62h-2.49c0.07,3.06,2.42,4.94,5.95,4.94c3.6,0,5.97-1.92,5.97-5.01
		C37.32,108.07,34.44,107.57,31.9,107.13"/>
	<path class="st2" d="M54.81,104.19c-1.9,0-3.46,0.84-4.29,2.42c-0.84-1.58-2.42-2.42-4.29-2.42c-2.86,0-5.03,1.73-5.03,5.45v7.06
		h2.34v-7.06c0-2.27,1.21-3.28,2.91-3.28c1.65,0,2.91,1.06,2.91,3.28v7.06h2.35v-7.06c0-2.22,1.23-3.28,2.89-3.28
		c1.7,0,2.91,1.01,2.91,3.28v7.06h2.34v-7.06C59.85,105.92,57.68,104.19,54.81,104.19"/>
	<path class="st2" d="M63.72,99.3c-0.94,0-1.63,0.69-1.63,1.63s0.69,1.65,1.63,1.65c0.94,0,1.63-0.72,1.63-1.65
		S64.66,99.3,63.72,99.3"/>
	<rect x="62.56" y="104.51" class="st2" width="2.34" height="12.19"/>
	<rect x="67.74" y="99.18" class="st2" width="2.34" height="17.52"/>
	<path class="st2" d="M79.47,103.87c-3.85,0-6.57,2.71-6.57,6.42c0,3.7,2.71,6.42,6.57,6.42c2.84,0,5.06-1.46,6-3.73h-2.59
		c-0.72,1.06-1.83,1.55-3.4,1.55c-2.12,0-3.75-1.21-4.1-3.38h10.61v-0.86C85.98,106.58,83.31,103.87,79.47,103.87 M75.44,109.05
		c0.47-1.92,2-3.01,4.02-3.01c1.97,0,3.58,1.06,4.05,3.01H75.44z"/>
	<path class="st0" d="M37.76,90.7c-0.25,0.18-0.46,0.34-0.62,0.46c-0.2,0.6,1.1,1.13,0.01,1.79c-0.29-0.49-0.54-0.9-0.79-1.33
		c-0.27,0.1-0.51,0.2-0.83,0.32c-0.13-1.08-0.25-2.12-0.37-3.15c0.05-0.03,0.1-0.06,0.15-0.08C36.11,89.36,36.92,90.02,37.76,90.7"
		/>
	<path class="st0" d="M75.22,52.97c3.17,0.47,5.44-0.8,6.08-3.4c0.17-0.67,0.11-1.4,0.12-2.11c0.02-0.91,0-1.82,0-2.72
		c0-2.24,0.36-2.88,2.33-4.08c-0.18-0.11-0.33-0.23-0.5-0.32c-1.28-0.65-1.81-1.74-1.83-3.12c-0.01-1.45,0-2.89-0.01-4.34
		c-0.02-2.51-1.92-4.47-4.44-4.55c-0.93-0.03-1.86-0.01-2.76-0.01c-0.06-0.2-0.11-0.27-0.11-0.35c-0.12-1.46-0.12-1.43,1.36-1.47
		c2.25-0.05,4.36,0.28,6,2.02c1.12,1.19,1.7,2.6,1.74,4.22c0.03,1.36,0.01,2.72,0.01,4.08c0,1.55,0.36,1.95,1.89,2.1
		c0.14,0.01,0.27,0.05,0.44,0.07v3.3c-2.33,0.46-2.32,0.46-2.34,2.87c-0.02,1.56,0.06,3.13-0.18,4.66
		c-0.45,2.86-3.12,4.99-6.02,5.01c-1.3,0.01-2.6,0-4.11,0c0.33-1.54,0.59-3,0.96-4.43c0.46-1.78,1.01-3.53,1.51-5.29
		c0.13-0.46,0.28-0.93,0.32-1.4c0.11-1.07-0.45-1.69-1.53-1.63c-0.62,0.03-1.05-0.15-1.48-0.6c-1.09-1.13-2.28-1.1-3.29,0.09
		c-0.33,0.38-0.64,0.53-1.15,0.52c-1.94-0.03-2.36,0.66-1.82,2.56c0.84,2.99,1.61,6,2.4,9c0.05,0.19,0.07,0.39,0.07,0.59
		c0.01,0.16-0.02,0.33-0.05,0.6c-2.73-0.12-5.55,0.54-7.89-1.49c-1.32-1.15-2.15-2.56-2.21-4.33c-0.05-1.38-0.03-2.77-0.03-4.16
		c0-2.03-0.23-2.29-2.28-2.52v-3.32c1.99-0.35,2.33-0.32,2.31-2.95c-0.01-1.05-0.01-2.1,0-3.15c0.01-3.58,2.73-6.35,6.32-6.43
		c0.62-0.02,1.25,0.04,1.87-0.02c0.76-0.07,1.05,0.21,0.94,0.96c-0.04,0.24-0.03,0.49-0.06,0.86c-0.77,0-1.5-0.01-2.23,0
		c-3.29,0.03-5.08,1.8-5.15,5.1c-0.02,0.96-0.01,1.93-0.01,2.89c0,2.7-0.08,2.88-2.26,4.38c0.18,0.1,0.33,0.2,0.49,0.29
		c1.14,0.62,1.77,1.55,1.76,2.88c-0.01,1.39-0.01,2.78-0.01,4.17c0.02,3.56,2.77,5.72,6.44,4.9c-0.47-1.8-0.94-3.59-1.41-5.38
		c-0.36-1.36-0.89-2.7-1.04-4.07c-0.19-1.73,1-2.91,2.73-3.18c0.51-0.08,1.04-0.3,1.47-0.59c1.78-1.19,3.21-1.19,4.95,0
		c0.4,0.27,0.91,0.43,1.39,0.55c2.01,0.51,3.06,2.15,2.53,4.18c-0.69,2.65-1.45,5.28-2.18,7.93C75.26,52.54,75.25,52.74,75.22,52.97
		"/>
	<path class="st0" d="M76.88,57.67c0.02,0.39,0.02,0.67,0.05,0.94c0.06,0.5-0.15,0.73-0.66,0.74c-2.35,0.03-4.7,0.08-7.05,0.08
		c-0.71,0-0.53-0.59-0.55-1.02c-0.02-0.39-0.01-0.75,0.54-0.75C71.72,57.68,74.24,57.67,76.88,57.67"/>
	<path class="st0" d="M64.97,63.25c-0.03-0.33-0.03-0.53-0.06-0.72c-0.11-0.74,0.17-0.99,0.94-0.97c2.4,0.05,4.8,0.02,7.26,0.02
		c0.04,0.32,0.06,0.56,0.09,0.81c0.09,0.65-0.17,0.89-0.85,0.88C69.92,63.23,67.48,63.25,64.97,63.25"/>
	<path class="st0" d="M72.96,65.48v1.63c-1.22,0-2.43,0.03-3.63-0.04c-0.15-0.01-0.37-0.55-0.36-0.85c0-0.25,0.26-0.7,0.43-0.71
		C70.55,65.45,71.71,65.48,72.96,65.48"/>
	<path class="st0" d="M64.79,57.72h1.97c-0.09,0.56-0.03,1.17-0.3,1.51c-0.17,0.22-1.02,0.22-1.23,0.01
		C64.93,58.93,64.94,58.32,64.79,57.72"/>
	<rect x="75.31" y="61.65" class="st0" width="1.55" height="1.49"/>
</g>
</svg>
